<svg width="0" height="0" class="hidden">
  <symbol fill="none" xmlns="http://www.w3.org/2000/svg" viewBox="0 0 27 21" id="email">
    <path d="M25.8125 0.169922H1.4375C0.9189 0.169922 0.5 0.589863 0.5 1.10986V19.8599C0.5 20.3799 0.9189 20.7998 1.4375 20.7998H25.8125C26.3311 20.7998 26.75 20.3799 26.75 19.8599V1.10986C26.75 0.589863 26.3311 0.169922 25.8125 0.169922ZM24.6406 3.41992V18.6899H2.6094V3.41992L1.8008 2.79004L2.9521 1.31006L4.2061 2.29004H23.0469L24.3008 1.31006L25.4521 2.79004L24.6406 3.41992ZM23.0469 2.27979L13.625 9.60986L4.2031 2.27979L2.9492 1.31006L1.7979 2.79004L2.6064 3.41992L12.6143 11.2002C12.9021 11.4202 13.2561 11.54 13.6206 11.54C13.9851 11.54 14.3391 11.4202 14.627 11.2002L24.6406 3.41992L25.4492 2.79004L24.2979 1.31006L23.0469 2.27979Z" fill="#FF5722"></path>
  </symbol>
  <symbol fill="none" xmlns="http://www.w3.org/2000/svg" viewBox="0 0 34 33" id="facebook">
    <path d="M31.73 0.47998H2.27098C1.56298 0.47998 0.98999 1.05977 0.98999 1.75977V31.2202C0.98999 31.9302 1.56298 32.5 2.27098 32.5H31.73C32.439 32.5 33.011 31.9302 33.011 31.2202V1.75977C33.011 1.05977 32.439 0.47998 31.73 0.47998ZM28.032 9.83008H25.474C23.469 9.83008 23.081 10.7802 23.081 12.1802V15.27H27.868L27.244 20.1001H23.081V32.5H18.09V20.1001H13.915V15.27H18.09V11.71C18.09 7.56996 20.615 5.31982 24.306 5.31982C26.075 5.31982 27.592 5.44977 28.036 5.50977V9.83008H28.032Z" fill="#FF5722"></path>
  </symbol>
  <symbol fill="none" xmlns="http://www.w3.org/2000/svg" viewBox="0 0 33 33" id="linkedin">
    <path d="M31.718 0.47998H2.25903C1.55103 0.47998 0.978027 1.05977 0.978027 1.75977V31.2202C0.978027 31.9302 1.55103 32.5 2.25903 32.5H31.718C32.427 32.5 32.999 31.9302 32.999 31.2202V1.75977C32.999 1.05977 32.427 0.47998 31.718 0.47998ZM10.476 27.77H5.72504V12.4902H10.476V27.77ZM8.10303 10.3999C7.55803 10.3999 7.02603 10.2402 6.57303 9.93018C6.12003 9.63018 5.76702 9.2002 5.55902 8.7002C5.35002 8.1902 5.29604 7.63986 5.40204 7.10986C5.50804 6.56986 5.77104 6.0802 6.15604 5.7002C6.54104 5.3102 7.03104 5.04994 7.56604 4.93994C8.10004 4.83994 8.65404 4.8901 9.15704 5.1001C9.66004 5.3101 10.09 5.65986 10.393 6.10986C10.695 6.56986 10.857 7.10014 10.857 7.64014C10.853 9.16014 9.62003 10.3999 8.10303 10.3999ZM28.264 27.77H23.517V20.3398C23.517 18.5598 23.485 16.29 21.047 16.29C18.578 16.29 18.197 18.21 18.197 20.21V27.77H13.454V12.4902H18.009V14.5801H18.073C18.706 13.3801 20.255 12.1099 22.568 12.1099C27.379 12.1099 28.264 15.2701 28.264 19.3901V27.77Z" fill="#FF5722"></path>
  </symbol>
  <symbol fill="none" xmlns="http://www.w3.org/2000/svg" viewBox="0 0 26 32" id="location">
    <path d="M13.4998 19.1499C16.9927 19.1499 19.8332 16.3098 19.8332 12.8198C19.8332 9.32982 16.9927 6.49023 13.4998 6.49023C10.007 6.49023 7.1665 9.32982 7.1665 12.8198C7.1665 16.3098 10.007 19.1499 13.4998 19.1499ZM13.4998 9.6499C15.2463 9.6499 16.6665 11.0698 16.6665 12.8198C16.6665 14.5698 15.2463 15.9902 13.4998 15.9902C11.7534 15.9902 10.3332 14.5698 10.3332 12.8198C10.3332 11.0698 11.7534 9.6499 13.4998 9.6499Z" fill="#FF5722"></path>
    <path d="M12.2487 31.5298C12.5166 31.7198 12.8377 31.8198 13.167 31.8198C13.4963 31.8198 13.8173 31.7198 14.0853 31.5298C14.5667 31.1898 25.8796 23.0198 25.8337 12.8198C25.8337 5.83982 20.1511 0.149902 13.167 0.149902C6.18286 0.149902 0.500261 5.84006 0.500261 12.8101C0.454361 23.0201 11.7673 31.1898 12.2487 31.5298ZM13.167 3.31982C18.4062 3.31982 22.667 7.58008 22.667 12.8301C22.7002 19.8501 15.7193 26.16 13.167 28.23C10.6162 26.16 3.63366 19.8498 3.66696 12.8198C3.66696 7.57982 7.92766 3.31982 13.167 3.31982Z" fill="#FF5722"></path>
  </symbol>
  <symbol fill="none" xmlns="http://www.w3.org/2000/svg" viewBox="0 0 21 33" id="phone">
    <path d="M16.5419 0.450195H4.87524C2.45434 0.450195 0.500244 2.39982 0.500244 4.81982V28.1499C0.500244 30.5699 2.45434 32.5298 4.87524 32.5298H16.5419C18.9627 32.5298 20.9169 30.5699 20.9169 28.1499V4.81982C20.9169 2.39982 18.9627 0.450195 16.5419 0.450195ZM13.6252 29.6099H7.79195V28.1499H13.6252V29.6099ZM18.3648 25.2402H3.05235V4.81982H18.3648V25.2402Z" fill="#FF5722"></path>
  </symbol>
  <symbol fill="none" xmlns="http://www.w3.org/2000/svg" viewBox="0 0 34 29" id="twitter">
    <path d="M33.665 4.18018C32.44 4.71018 31.107 5.09023 29.735 5.24023C31.16 4.39023 32.227 3.05021 32.736 1.47021C31.399 2.27021 29.934 2.83012 28.406 3.12012C27.767 2.44012 26.995 1.90002 26.137 1.52002C25.279 1.15002 24.353 0.959961 23.418 0.959961C19.636 0.959961 16.594 4.03004 16.594 7.79004C16.594 8.32004 16.658 8.84986 16.762 9.35986C11.098 9.05986 6.04701 6.35996 2.68901 2.20996C2.07701 3.25996 1.75601 4.45016 1.76001 5.66016C1.76001 8.03016 2.96502 10.1201 4.80202 11.3501C3.72002 11.3001 2.66202 11.01 1.71602 10.48V10.5601C1.71602 13.8801 4.06202 16.6298 7.18802 17.2598C6.60102 17.4198 5.99702 17.49 5.39102 17.5C4.94602 17.5 4.52602 17.4501 4.10202 17.3901C4.96602 20.1001 7.48401 22.0599 10.482 22.1299C8.13701 23.9599 5.19902 25.04 2.00902 25.04C1.43602 25.04 0.908009 25.02 0.359009 24.96C3.38501 26.9 6.97601 28.02 10.842 28.02C23.394 28.02 30.263 17.6201 30.263 8.6001C30.263 8.3001 30.263 7.99996 30.243 7.70996C31.572 6.73996 32.736 5.53018 33.665 4.18018Z" fill="#FF5722"></path>
  </symbol>
</svg>