<svg width="27" height="21" viewBox="0 0 27 21" fill="none" xmlns="http://www.w3.org/2000/svg">
<path d="M25.8125 0.169922H1.4375C0.9189 0.169922 0.5 0.589863 0.5 1.10986V19.8599C0.5 20.3799 0.9189 20.7998 1.4375 20.7998H25.8125C26.3311 20.7998 26.75 20.3799 26.75 19.8599V1.10986C26.75 0.589863 26.3311 0.169922 25.8125 0.169922ZM24.6406 3.41992V18.6899H2.6094V3.41992L1.8008 2.79004L2.9521 1.31006L4.2061 2.29004H23.0469L24.3008 1.31006L25.4521 2.79004L24.6406 3.41992ZM23.0469 2.27979L13.625 9.60986L4.2031 2.27979L2.9492 1.31006L1.7979 2.79004L2.6064 3.41992L12.6143 11.2002C12.9021 11.4202 13.2561 11.54 13.6206 11.54C13.9851 11.54 14.3391 11.4202 14.627 11.2002L24.6406 3.41992L25.4492 2.79004L24.2979 1.31006L23.0469 2.27979Z" fill="#FF5722"/>
</svg>
