<svg width="34" height="33" viewBox="0 0 34 33" fill="none" xmlns="http://www.w3.org/2000/svg">
<path d="M31.73 0.47998H2.27098C1.56298 0.47998 0.98999 1.05977 0.98999 1.75977V31.2202C0.98999 31.9302 1.56298 32.5 2.27098 32.5H31.73C32.439 32.5 33.011 31.9302 33.011 31.2202V1.75977C33.011 1.05977 32.439 0.47998 31.73 0.47998ZM28.032 9.83008H25.474C23.469 9.83008 23.081 10.7802 23.081 12.1802V15.27H27.868L27.244 20.1001H23.081V32.5H18.09V20.1001H13.915V15.27H18.09V11.71C18.09 7.56996 20.615 5.31982 24.306 5.31982C26.075 5.31982 27.592 5.44977 28.036 5.50977V9.83008H28.032Z" fill="#FF5722"/>
</svg>
