<svg width="33" height="33" viewBox="0 0 33 33" fill="none" xmlns="http://www.w3.org/2000/svg">
<path d="M31.718 0.47998H2.25903C1.55103 0.47998 0.978027 1.05977 0.978027 1.75977V31.2202C0.978027 31.9302 1.55103 32.5 2.25903 32.5H31.718C32.427 32.5 32.999 31.9302 32.999 31.2202V1.75977C32.999 1.05977 32.427 0.47998 31.718 0.47998ZM10.476 27.77H5.72504V12.4902H10.476V27.77ZM8.10303 10.3999C7.55803 10.3999 7.02603 10.2402 6.57303 9.93018C6.12003 9.63018 5.76702 9.2002 5.55902 8.7002C5.35002 8.1902 5.29604 7.63986 5.40204 7.10986C5.50804 6.56986 5.77104 6.0802 6.15604 5.7002C6.54104 5.3102 7.03104 5.04994 7.56604 4.93994C8.10004 4.83994 8.65404 4.8901 9.15704 5.1001C9.66004 5.3101 10.09 5.65986 10.393 6.10986C10.695 6.56986 10.857 7.10014 10.857 7.64014C10.853 9.16014 9.62003 10.3999 8.10303 10.3999ZM28.264 27.77H23.517V20.3398C23.517 18.5598 23.485 16.29 21.047 16.29C18.578 16.29 18.197 18.21 18.197 20.21V27.77H13.454V12.4902H18.009V14.5801H18.073C18.706 13.3801 20.255 12.1099 22.568 12.1099C27.379 12.1099 28.264 15.2701 28.264 19.3901V27.77Z" fill="#FF5722"/>
</svg>
