<svg width="26" height="32" viewBox="0 0 26 32" fill="none" xmlns="http://www.w3.org/2000/svg">
<path d="M13.4998 19.1499C16.9927 19.1499 19.8332 16.3098 19.8332 12.8198C19.8332 9.32982 16.9927 6.49023 13.4998 6.49023C10.007 6.49023 7.1665 9.32982 7.1665 12.8198C7.1665 16.3098 10.007 19.1499 13.4998 19.1499ZM13.4998 9.6499C15.2463 9.6499 16.6665 11.0698 16.6665 12.8198C16.6665 14.5698 15.2463 15.9902 13.4998 15.9902C11.7534 15.9902 10.3332 14.5698 10.3332 12.8198C10.3332 11.0698 11.7534 9.6499 13.4998 9.6499Z" fill="#FF5722"/>
<path d="M12.2487 31.5298C12.5166 31.7198 12.8377 31.8198 13.167 31.8198C13.4963 31.8198 13.8173 31.7198 14.0853 31.5298C14.5667 31.1898 25.8796 23.0198 25.8337 12.8198C25.8337 5.83982 20.1511 0.149902 13.167 0.149902C6.18286 0.149902 0.500261 5.84006 0.500261 12.8101C0.454361 23.0201 11.7673 31.1898 12.2487 31.5298ZM13.167 3.31982C18.4062 3.31982 22.667 7.58008 22.667 12.8301C22.7002 19.8501 15.7193 26.16 13.167 28.23C10.6162 26.16 3.63366 19.8498 3.66696 12.8198C3.66696 7.57982 7.92766 3.31982 13.167 3.31982Z" fill="#FF5722"/>
</svg>
