<svg width="34" height="29" viewBox="0 0 34 29" fill="none" xmlns="http://www.w3.org/2000/svg">
<path d="M33.665 4.18018C32.44 4.71018 31.107 5.09023 29.735 5.24023C31.16 4.39023 32.227 3.05021 32.736 1.47021C31.399 2.27021 29.934 2.83012 28.406 3.12012C27.767 2.44012 26.995 1.90002 26.137 1.52002C25.279 1.15002 24.353 0.959961 23.418 0.959961C19.636 0.959961 16.594 4.03004 16.594 7.79004C16.594 8.32004 16.658 8.84986 16.762 9.35986C11.098 9.05986 6.04701 6.35996 2.68901 2.20996C2.07701 3.25996 1.75601 4.45016 1.76001 5.66016C1.76001 8.03016 2.96502 10.1201 4.80202 11.3501C3.72002 11.3001 2.66202 11.01 1.71602 10.48V10.5601C1.71602 13.8801 4.06202 16.6298 7.18802 17.2598C6.60102 17.4198 5.99702 17.49 5.39102 17.5C4.94602 17.5 4.52602 17.4501 4.10202 17.3901C4.96602 20.1001 7.48401 22.0599 10.482 22.1299C8.13701 23.9599 5.19902 25.04 2.00902 25.04C1.43602 25.04 0.908009 25.02 0.359009 24.96C3.38501 26.9 6.97601 28.02 10.842 28.02C23.394 28.02 30.263 17.6201 30.263 8.6001C30.263 8.3001 30.263 7.99996 30.243 7.70996C31.572 6.73996 32.736 5.53018 33.665 4.18018Z" fill="#FF5722"/>
</svg>
